<svg width="32" height="15" viewBox="0 0 32 15" fill="none" xmlns="http://www.w3.org/2000/svg">
<path d="M24.7991 10.9561C25.1168 10.7643 25.5147 10.7643 25.8325 10.9561L27.1899 11.7754C27.9473 12.2325 28.8815 11.5535 28.6805 10.692L28.3203 9.1478C28.236 8.78631 28.3588 8.40784 28.6394 8.16479L29.8402 7.12452C30.5088 6.54531 30.1514 5.44705 29.2699 5.37227L27.6914 5.23835C27.3218 5.20699 26.9999 4.97365 26.8552 4.63215L26.2365 3.17237C25.8919 2.35934 24.7397 2.35934 24.3951 3.17237L23.7764 4.63215C23.6316 4.97365 23.3098 5.20699 22.9402 5.23835L21.3616 5.37227C20.4802 5.44705 20.1228 6.54531 20.7914 7.12452L21.9922 8.16479C22.2728 8.40784 22.3956 8.78631 22.3113 9.1478L21.951 10.692C21.7501 11.5535 22.6843 12.2325 23.4416 11.7754L24.7991 10.9561Z" fill="#FEC303"/>
<path d="M4.087 12.1193C3.51882 12.1193 3.0103 12.0128 2.56143 11.7997C2.11257 11.5838 1.75604 11.2884 1.49183 10.9134C1.23047 10.5384 1.09126 10.1094 1.07422 9.62642H2.60831C2.63672 9.98437 2.79155 10.277 3.0728 10.5043C3.35405 10.7287 3.69212 10.8409 4.087 10.8409C4.39666 10.8409 4.67223 10.7699 4.91371 10.6278C5.15518 10.4858 5.34553 10.2884 5.48473 10.0355C5.62393 9.78267 5.69212 9.49432 5.68928 9.17045C5.69212 8.84091 5.62251 8.5483 5.48047 8.29261C5.33842 8.03693 5.14382 7.83665 4.89666 7.69176C4.6495 7.54403 4.36541 7.47017 4.04439 7.47017C3.78303 7.46733 3.52592 7.51562 3.27308 7.61506C3.02024 7.71449 2.81996 7.84517 2.67223 8.0071L1.24467 7.77273L1.70064 3.27273H6.76314V4.59375H3.00888L2.75746 6.90767H2.80859C2.97053 6.71733 3.19922 6.55966 3.49467 6.43466C3.79013 6.30682 4.11399 6.2429 4.46626 6.2429C4.99467 6.2429 5.46626 6.3679 5.88104 6.6179C6.29581 6.86506 6.62251 7.20597 6.86115 7.64062C7.09979 8.07528 7.21911 8.57244 7.21911 9.1321C7.21911 9.70881 7.08558 10.223 6.81854 10.6747C6.55433 11.1236 6.18643 11.4773 5.71484 11.7358C5.24609 11.9915 4.70348 12.1193 4.087 12.1193ZM9.32102 12.0938C9.0625 12.0938 8.84091 12.0028 8.65625 11.821C8.47159 11.6392 8.38068 11.4176 8.38352 11.1562C8.38068 10.9006 8.47159 10.6818 8.65625 10.5C8.84091 10.3182 9.0625 10.2273 9.32102 10.2273C9.57102 10.2273 9.78835 10.3182 9.97301 10.5C10.1605 10.6818 10.2557 10.9006 10.2585 11.1562C10.2557 11.3295 10.2102 11.4872 10.1222 11.6293C10.0369 11.7713 9.9233 11.8849 9.78125 11.9702C9.64205 12.0526 9.48864 12.0938 9.32102 12.0938ZM14.7202 12.1662C14.0185 12.1662 13.4162 11.9886 12.9134 11.6335C12.4134 11.2756 12.0284 10.7599 11.7585 10.0866C11.4915 9.41051 11.358 8.59659 11.358 7.64489C11.3608 6.69318 11.4957 5.88352 11.7628 5.21591C12.0327 4.54545 12.4176 4.03409 12.9176 3.68182C13.4205 3.32955 14.0213 3.15341 14.7202 3.15341C15.419 3.15341 16.0199 3.32955 16.5227 3.68182C17.0256 4.03409 17.4105 4.54545 17.6776 5.21591C17.9474 5.88636 18.0824 6.69602 18.0824 7.64489C18.0824 8.59943 17.9474 9.41477 17.6776 10.0909C17.4105 10.7642 17.0256 11.2784 16.5227 11.6335C16.0227 11.9886 15.4219 12.1662 14.7202 12.1662ZM14.7202 10.8324C15.2656 10.8324 15.696 10.5639 16.0114 10.027C16.3295 9.48722 16.4886 8.69318 16.4886 7.64489C16.4886 6.9517 16.4162 6.36932 16.2713 5.89773C16.1264 5.42614 15.9219 5.07102 15.6577 4.83239C15.3935 4.59091 15.081 4.47017 14.7202 4.47017C14.1776 4.47017 13.7486 4.74006 13.4332 5.27983C13.1179 5.81676 12.9588 6.60511 12.956 7.64489C12.9531 8.34091 13.0227 8.92614 13.1648 9.40057C13.3097 9.875 13.5142 10.233 13.7784 10.4744C14.0426 10.7131 14.3565 10.8324 14.7202 10.8324Z" fill="black"/>
</svg>
